<svg xmlns="http://www.w3.org/2000/svg" viewBox="0 0 184 64" fill="none" role="img" aria-labelledby="t">
  <!-- generated by scripts/generate-assets.mjs — do not edit by hand -->
  <title id="t">The Plexus braid band</title>
  <path d="M8 42 C15.69 42 21.74 39.94 27.2 37.15 M44.8 26.85 C50.26 24.06 56.31 22 64 22 C88 22 96 42 120 42 C127.69 42 133.74 39.94 139.2 37.15 M156.8 26.85 C162.26 24.06 168.31 22 176 22" stroke="#1B1D1A" stroke-width="6" stroke-linecap="round"/>
  <path d="M8 22 C32 22 40 42 64 42 C71.69 42 77.74 39.94 83.2 37.15 M100.8 26.85 C106.26 24.06 112.31 22 120 22 C144 22 152 42 176 42" stroke="#D9A400" stroke-width="6" stroke-linecap="round"/>
</svg>
